<mxfile host="app.diagrams.net" modified="2021-01-22T03:25:38.790Z" agent="5.0 (Windows NT 10.0; Win64; x64) AppleWebKit/537.36 (KHTML, like Gecko) Chrome/88.0.4324.104 Safari/537.36" etag="P7ZRgLHP0lX-ZFDjVAVJ" version="14.2.6" type="github">
  <diagram id="gpOOgWsFx2NSMoWINpvM" name="Page-1">
    <mxGraphModel dx="1422" dy="762" grid="1" gridSize="10" guides="1" tooltips="1" connect="1" arrows="1" fold="1" page="1" pageScale="1" pageWidth="827" pageHeight="1169" math="0" shadow="0">
      <root>
        <mxCell id="0" />
        <mxCell id="1" parent="0" />
        <mxCell id="J6rK1_Ec7FWcwM9XgF8i-1" value="&lt;pre style=&quot;background-color: #2b2b2b ; color: #a9b7c6 ; font-family: &amp;#34;fira code medium&amp;#34; , monospace ; font-size: 11.3pt&quot;&gt;BaseDialog&lt;/pre&gt;" style="rounded=0;whiteSpace=wrap;html=1;" parent="1" vertex="1">
          <mxGeometry x="310" y="90" width="120" height="60" as="geometry" />
        </mxCell>
        <mxCell id="J6rK1_Ec7FWcwM9XgF8i-3" style="edgeStyle=orthogonalEdgeStyle;rounded=0;orthogonalLoop=1;jettySize=auto;html=1;entryX=0.15;entryY=1.05;entryDx=0;entryDy=0;entryPerimeter=0;" parent="1" source="J6rK1_Ec7FWcwM9XgF8i-2" target="J6rK1_Ec7FWcwM9XgF8i-1" edge="1">
          <mxGeometry relative="1" as="geometry" />
        </mxCell>
        <mxCell id="J6rK1_Ec7FWcwM9XgF8i-5" style="edgeStyle=orthogonalEdgeStyle;rounded=0;orthogonalLoop=1;jettySize=auto;html=1;entryX=0.413;entryY=0.025;entryDx=0;entryDy=0;entryPerimeter=0;" parent="1" source="J6rK1_Ec7FWcwM9XgF8i-2" target="J6rK1_Ec7FWcwM9XgF8i-4" edge="1">
          <mxGeometry relative="1" as="geometry" />
        </mxCell>
        <mxCell id="J6rK1_Ec7FWcwM9XgF8i-2" value="&lt;pre style=&quot;background-color: #2b2b2b ; color: #a9b7c6 ; font-family: &amp;#34;fira code medium&amp;#34; , monospace ; font-size: 11.3pt&quot;&gt;CustomDialog&lt;/pre&gt;" style="rounded=0;whiteSpace=wrap;html=1;" parent="1" vertex="1">
          <mxGeometry x="280" y="240" width="120" height="30" as="geometry" />
        </mxCell>
        <mxCell id="J6rK1_Ec7FWcwM9XgF8i-6" style="edgeStyle=orthogonalEdgeStyle;rounded=0;orthogonalLoop=1;jettySize=auto;html=1;" parent="1" source="J6rK1_Ec7FWcwM9XgF8i-4" edge="1">
          <mxGeometry relative="1" as="geometry">
            <mxPoint x="530" y="430" as="targetPoint" />
          </mxGeometry>
        </mxCell>
        <mxCell id="J6rK1_Ec7FWcwM9XgF8i-4" value="show()" style="whiteSpace=wrap;html=1;aspect=fixed;" parent="1" vertex="1">
          <mxGeometry x="300" y="390" width="80" height="80" as="geometry" />
        </mxCell>
        <mxCell id="J6rK1_Ec7FWcwM9XgF8i-10" style="edgeStyle=orthogonalEdgeStyle;rounded=0;orthogonalLoop=1;jettySize=auto;html=1;entryX=0.425;entryY=1.017;entryDx=0;entryDy=0;entryPerimeter=0;" parent="1" source="J6rK1_Ec7FWcwM9XgF8i-13" target="J6rK1_Ec7FWcwM9XgF8i-9" edge="1">
          <mxGeometry relative="1" as="geometry" />
        </mxCell>
        <mxCell id="J6rK1_Ec7FWcwM9XgF8i-11" style="edgeStyle=orthogonalEdgeStyle;rounded=0;orthogonalLoop=1;jettySize=auto;html=1;" parent="1" source="J6rK1_Ec7FWcwM9XgF8i-8" edge="1">
          <mxGeometry relative="1" as="geometry">
            <mxPoint x="600" y="610" as="targetPoint" />
          </mxGeometry>
        </mxCell>
        <mxCell id="J6rK1_Ec7FWcwM9XgF8i-8" value="&lt;pre style=&quot;background-color: #2b2b2b ; color: #a9b7c6 ; font-family: &amp;quot;fira code medium&amp;quot; , monospace ; font-size: 11.3pt&quot;&gt;DialogHelper&lt;/pre&gt;" style="rounded=0;whiteSpace=wrap;html=1;" parent="1" vertex="1">
          <mxGeometry x="540" y="400" width="120" height="60" as="geometry" />
        </mxCell>
        <mxCell id="J6rK1_Ec7FWcwM9XgF8i-9" value="&lt;pre style=&quot;background-color: #2b2b2b ; color: #a9b7c6 ; font-family: &amp;#34;fira code medium&amp;#34; , monospace ; font-size: 11.3pt&quot;&gt;DialogFragment&lt;/pre&gt;" style="rounded=0;whiteSpace=wrap;html=1;" parent="1" vertex="1">
          <mxGeometry x="540" y="230" width="120" height="60" as="geometry" />
        </mxCell>
        <mxCell id="J6rK1_Ec7FWcwM9XgF8i-12" value="&lt;pre style=&quot;background-color: #2b2b2b ; color: #a9b7c6 ; font-family: &amp;#34;fira code medium&amp;#34; , monospace ; font-size: 11.3pt&quot;&gt;&lt;span style=&quot;color: #ffc66d&quot;&gt;onStart修改宽度&lt;/span&gt;&lt;/pre&gt;" style="whiteSpace=wrap;html=1;aspect=fixed;" parent="1" vertex="1">
          <mxGeometry x="546" y="610" width="110" height="110" as="geometry" />
        </mxCell>
        <mxCell id="J6rK1_Ec7FWcwM9XgF8i-13" value="继承" style="text;html=1;strokeColor=none;fillColor=none;align=center;verticalAlign=middle;whiteSpace=wrap;rounded=0;" parent="1" vertex="1">
          <mxGeometry x="580" y="360" width="40" height="20" as="geometry" />
        </mxCell>
        <mxCell id="J6rK1_Ec7FWcwM9XgF8i-14" style="edgeStyle=orthogonalEdgeStyle;rounded=0;orthogonalLoop=1;jettySize=auto;html=1;entryX=0.425;entryY=1.017;entryDx=0;entryDy=0;entryPerimeter=0;" parent="1" source="J6rK1_Ec7FWcwM9XgF8i-8" target="J6rK1_Ec7FWcwM9XgF8i-13" edge="1">
          <mxGeometry relative="1" as="geometry">
            <mxPoint x="600" y="400" as="sourcePoint" />
            <mxPoint x="591" y="291.02" as="targetPoint" />
          </mxGeometry>
        </mxCell>
      </root>
    </mxGraphModel>
  </diagram>
</mxfile>
